<svg xmlns="http://www.w3.org/2000/svg" xmlns:xlink="http://www.w3.org/1999/xlink" width="500" zoomAndPan="magnify" viewBox="0 0 375 374.999991" height="500" preserveAspectRatio="xMidYMid meet" version="1.0"><defs><g/><clipPath id="1087ba2e21"><path d="M 76.859375 124.359375 L 114.984375 124.359375 L 114.984375 165 L 76.859375 165 Z M 76.859375 124.359375 " clip-rule="nonzero"/></clipPath><clipPath id="a2f2b5b7ef"><path d="M 89.574219 125.460938 C 91.523438 124.796875 93.75 124.359375 95.929688 124.359375 C 98.113281 124.359375 100.210938 124.734375 102.144531 125.398438 C 102.1875 125.421875 102.226562 125.421875 102.269531 125.441406 C 109.53125 128.105469 114.878906 135.140625 114.984375 143.214844 L 114.984375 164.980469 L 76.859375 164.980469 L 76.859375 143.234375 C 76.960938 135.097656 82.230469 128.0625 89.574219 125.460938 Z M 89.574219 125.460938 " clip-rule="nonzero"/></clipPath><clipPath id="9eca3ca5a1"><path d="M 0.859375 0.359375 L 38.984375 0.359375 L 38.984375 41 L 0.859375 41 Z M 0.859375 0.359375 " clip-rule="nonzero"/></clipPath><clipPath id="39df6e8c13"><path d="M 13.574219 1.460938 C 15.523438 0.796875 17.75 0.359375 19.929688 0.359375 C 22.113281 0.359375 24.210938 0.734375 26.144531 1.398438 C 26.1875 1.421875 26.226562 1.421875 26.269531 1.441406 C 33.53125 4.105469 38.878906 11.140625 38.984375 19.214844 L 38.984375 40.980469 L 0.859375 40.980469 L 0.859375 19.234375 C 0.960938 11.097656 6.230469 4.0625 13.574219 1.460938 Z M 13.574219 1.460938 " clip-rule="nonzero"/></clipPath><clipPath id="6322436699"><rect x="0" width="39" y="0" height="41"/></clipPath><clipPath id="44ac72adf1"><path d="M 249.964844 124.359375 L 288.089844 124.359375 L 288.089844 165 L 249.964844 165 Z M 249.964844 124.359375 " clip-rule="nonzero"/></clipPath><clipPath id="76dfc459f7"><path d="M 262.679688 125.460938 C 264.628906 124.796875 266.859375 124.359375 269.039062 124.359375 C 271.21875 124.359375 273.316406 124.734375 275.253906 125.398438 C 275.292969 125.421875 275.335938 125.421875 275.375 125.441406 C 282.636719 128.105469 287.988281 135.140625 288.089844 143.214844 L 288.089844 164.980469 L 249.964844 164.980469 L 249.964844 143.234375 C 250.070312 135.097656 255.335938 128.0625 262.679688 125.460938 Z M 262.679688 125.460938 " clip-rule="nonzero"/></clipPath><clipPath id="c12eaeaa3e"><path d="M 0.964844 0.359375 L 39.089844 0.359375 L 39.089844 41 L 0.964844 41 Z M 0.964844 0.359375 " clip-rule="nonzero"/></clipPath><clipPath id="3c1ce8cac9"><path d="M 13.679688 1.460938 C 15.628906 0.796875 17.859375 0.359375 20.039062 0.359375 C 22.21875 0.359375 24.316406 0.734375 26.253906 1.398438 C 26.292969 1.421875 26.335938 1.421875 26.375 1.441406 C 33.636719 4.105469 38.988281 11.140625 39.089844 19.214844 L 39.089844 40.980469 L 0.964844 40.980469 L 0.964844 19.234375 C 1.070312 11.097656 6.335938 4.0625 13.679688 1.460938 Z M 13.679688 1.460938 " clip-rule="nonzero"/></clipPath><clipPath id="7034c6e72a"><rect x="0" width="40" y="0" height="41"/></clipPath></defs><g fill="#ffffff" fill-opacity="1"><g transform="translate(12.965982, 237.820268)"><g><path d="M 1.4375 -72 L 30.234375 -72 C 35.160156 -72 39.769531 -71.179688 44.0625 -69.546875 C 48.351562 -67.921875 52.113281 -65.554688 55.34375 -62.453125 C 58.570312 -59.347656 61.113281 -55.570312 62.96875 -51.125 C 64.832031 -46.675781 65.765625 -41.632812 65.765625 -36 C 65.765625 -28.570312 64.4375 -22.15625 61.78125 -16.75 C 59.125 -11.34375 55.171875 -7.179688 49.921875 -4.265625 C 44.671875 -1.359375 38.109375 0.09375 30.234375 0.09375 L 30.234375 24 L 1.4375 24 Z M 30.234375 -43.484375 L 30.234375 -27.84375 C 31.515625 -27.84375 32.601562 -28.257812 33.5 -29.09375 C 34.394531 -29.925781 35.082031 -30.929688 35.5625 -32.109375 C 36.039062 -33.296875 36.28125 -34.460938 36.28125 -35.609375 C 36.28125 -37.785156 35.6875 -39.640625 34.5 -41.171875 C 33.320312 -42.710938 31.898438 -43.484375 30.234375 -43.484375 Z M 30.234375 -43.484375 "/></g></g></g><g fill="#ffffff" fill-opacity="1"><g transform="translate(79.685994, 237.820268)"><g><path d="M 30.234375 0 L 1.4375 0 L 1.4375 -72 L 30.234375 -72 Z M 30.234375 -76.609375 L 1.4375 -76.609375 L 1.4375 -105.40625 L 30.234375 -105.40625 Z M 30.234375 -76.609375 "/></g></g></g><g fill="#ffffff" fill-opacity="1"><g transform="translate(111.365996, 237.820268)"><g><path d="M 38.40625 1.4375 C 32.957031 1.4375 27.960938 0.539062 23.421875 -1.25 C 18.878906 -3.039062 14.925781 -5.582031 11.5625 -8.875 C 8.207031 -12.175781 5.597656 -16.128906 3.734375 -20.734375 C 1.878906 -25.335938 0.953125 -30.425781 0.953125 -36 C 0.953125 -41.4375 1.847656 -46.441406 3.640625 -51.015625 C 5.441406 -55.597656 8.003906 -59.550781 11.328125 -62.875 C 14.648438 -66.207031 18.597656 -68.800781 23.171875 -70.65625 C 27.753906 -72.507812 32.832031 -73.4375 38.40625 -73.4375 C 43.84375 -73.4375 48.832031 -72.539062 53.375 -70.75 C 57.914062 -68.957031 61.863281 -66.410156 65.21875 -63.109375 C 68.582031 -59.816406 71.191406 -55.867188 73.046875 -51.265625 C 74.910156 -46.660156 75.84375 -41.570312 75.84375 -36 C 75.84375 -30.425781 74.910156 -25.335938 73.046875 -20.734375 C 71.191406 -16.128906 68.582031 -12.175781 65.21875 -8.875 C 61.863281 -5.582031 57.914062 -3.039062 53.375 -1.25 C 48.832031 0.539062 43.84375 1.4375 38.40625 1.4375 Z M 30.234375 -36.09375 C 30.234375 -33.664062 30.96875 -31.695312 32.4375 -30.1875 C 33.914062 -28.6875 35.90625 -27.9375 38.40625 -27.9375 C 40.832031 -27.9375 42.8125 -28.6875 44.34375 -30.1875 C 45.882812 -31.695312 46.65625 -33.664062 46.65625 -36.09375 C 46.65625 -38.59375 45.882812 -40.59375 44.34375 -42.09375 C 42.8125 -43.601562 40.832031 -44.359375 38.40625 -44.359375 C 35.96875 -44.359375 33.992188 -43.601562 32.484375 -42.09375 C 30.984375 -40.59375 30.234375 -38.59375 30.234375 -36.09375 Z M 30.234375 -36.09375 "/></g></g></g><g fill="#ffffff" fill-opacity="1"><g transform="translate(188.166009, 237.820268)"><g><path d="M 1.4375 -72 L 34.46875 -72 C 39.71875 -72 44.582031 -71.003906 49.0625 -69.015625 C 53.539062 -67.035156 57.140625 -64.015625 59.859375 -59.953125 C 62.578125 -55.890625 63.9375 -50.691406 63.9375 -44.359375 L 63.9375 0 L 35.140625 0 L 35.140625 -37.625 C 35.140625 -39.289062 35.023438 -40.664062 34.796875 -41.75 C 34.578125 -42.84375 33.726562 -43.390625 32.25 -43.390625 L 30.234375 -43.390625 L 30.234375 0 L 1.4375 0 Z M 1.4375 -72 "/></g></g></g><g fill="#ffffff" fill-opacity="1"><g transform="translate(253.542016, 237.820268)"><g><path d="M 30.234375 0 L 1.4375 0 L 1.4375 -72 L 30.234375 -72 Z M 30.234375 -76.609375 L 1.4375 -76.609375 L 1.4375 -105.40625 L 30.234375 -105.40625 Z M 30.234375 -76.609375 "/></g></g></g><g fill="#ffffff" fill-opacity="1"><g transform="translate(285.222006, 237.820268)"><g><path d="M 38.40625 1.4375 C 32.957031 1.4375 27.960938 0.539062 23.421875 -1.25 C 18.878906 -3.039062 14.925781 -5.582031 11.5625 -8.875 C 8.207031 -12.175781 5.597656 -16.128906 3.734375 -20.734375 C 1.878906 -25.335938 0.953125 -30.425781 0.953125 -36 C 0.953125 -41.4375 1.847656 -46.441406 3.640625 -51.015625 C 5.441406 -55.597656 8.003906 -59.550781 11.328125 -62.875 C 14.648438 -66.207031 18.597656 -68.800781 23.171875 -70.65625 C 27.753906 -72.507812 32.832031 -73.4375 38.40625 -73.4375 C 43.84375 -73.4375 48.832031 -72.539062 53.375 -70.75 C 57.914062 -68.957031 61.863281 -66.410156 65.21875 -63.109375 C 68.582031 -59.816406 71.191406 -55.867188 73.046875 -51.265625 C 74.910156 -46.660156 75.84375 -41.570312 75.84375 -36 C 75.84375 -30.425781 74.910156 -25.335938 73.046875 -20.734375 C 71.191406 -16.128906 68.582031 -12.175781 65.21875 -8.875 C 61.863281 -5.582031 57.914062 -3.039062 53.375 -1.25 C 48.832031 0.539062 43.84375 1.4375 38.40625 1.4375 Z M 30.234375 -36.09375 C 30.234375 -33.664062 30.96875 -31.695312 32.4375 -30.1875 C 33.914062 -28.6875 35.90625 -27.9375 38.40625 -27.9375 C 40.832031 -27.9375 42.8125 -28.6875 44.34375 -30.1875 C 45.882812 -31.695312 46.65625 -33.664062 46.65625 -36.09375 C 46.65625 -38.59375 45.882812 -40.59375 44.34375 -42.09375 C 42.8125 -43.601562 40.832031 -44.359375 38.40625 -44.359375 C 35.96875 -44.359375 33.992188 -43.601562 32.484375 -42.09375 C 30.984375 -40.59375 30.234375 -38.59375 30.234375 -36.09375 Z M 30.234375 -36.09375 "/></g></g></g><g clip-path="url(#1087ba2e21)"><g clip-path="url(#a2f2b5b7ef)"><g transform="matrix(1, 0, 0, 1, 76, 124)"><g clip-path="url(#6322436699)"><g clip-path="url(#9eca3ca5a1)"><g clip-path="url(#39df6e8c13)"><path fill="#ffffff" d="M 0.859375 0.359375 L 38.984375 0.359375 L 38.984375 41.015625 L 0.859375 41.015625 Z M 0.859375 0.359375 " fill-opacity="1" fill-rule="nonzero"/></g></g></g></g></g></g><g clip-path="url(#44ac72adf1)"><g clip-path="url(#76dfc459f7)"><g transform="matrix(1, 0, 0, 1, 249, 124)"><g clip-path="url(#7034c6e72a)"><g clip-path="url(#c12eaeaa3e)"><g clip-path="url(#3c1ce8cac9)"><path fill="#ffffff" d="M 0.964844 0.359375 L 39.089844 0.359375 L 39.089844 41.015625 L 0.964844 41.015625 Z M 0.964844 0.359375 " fill-opacity="1" fill-rule="nonzero"/></g></g></g></g></g></g></svg>